<svg xmlns="http://www.w3.org/2000/svg" xmlns:xlink="http://www.w3.org/1999/xlink" width="217" zoomAndPan="magnify" viewBox="0 0 162.75 54" height="72" preserveAspectRatio="xMidYMid meet" version="1.0"><defs><g/></defs><g fill="#4f46e5" fill-opacity="1"><g transform="translate(10.054422, 35.742401)"><g><path d="M 17.625 -17.4375 L 11.21875 -17.4375 L 11.21875 0 L 6.90625 0 L 6.90625 -17.4375 L 0.578125 -17.4375 L 0.578125 -20.9375 L 17.625 -20.9375 Z M 17.625 -17.4375 "/></g></g></g><g fill="#4f46e5" fill-opacity="1"><g transform="translate(28.217646, 35.742401)"><g><path d="M 18.890625 0 L 14.578125 0 L 6.1875 -13.78125 L 6.1875 0 L 1.875 0 L 1.875 -20.9375 L 6.1875 -20.9375 L 14.59375 -7.140625 L 14.59375 -20.9375 L 18.890625 -20.9375 Z M 18.890625 0 "/></g></g></g><g fill="#4f46e5" fill-opacity="1"><g transform="translate(48.955266, 35.742401)"><g><path d="M 7.5 -20.9375 L 12.890625 -5.75 L 18.234375 -20.9375 L 23.90625 -20.9375 L 23.90625 0 L 19.578125 0 L 19.578125 -5.71875 L 20 -15.609375 L 14.359375 0 L 11.390625 0 L 5.75 -15.59375 L 6.1875 -5.71875 L 6.1875 0 L 1.875 0 L 1.875 -20.9375 Z M 7.5 -20.9375 "/></g></g></g><g fill="#4f46e5" fill-opacity="1"><g transform="translate(74.697857, 35.742401)"><g/></g></g><g fill="#4f46e5" fill-opacity="1"><g transform="translate(81.97383, 35.742401)"><g><path d="M 14.46875 -8.5625 L 6.1875 -8.5625 L 6.1875 0 L 1.875 0 L 1.875 -20.9375 L 15.5 -20.9375 L 15.5 -17.4375 L 6.1875 -17.4375 L 6.1875 -12.03125 L 14.46875 -12.03125 Z M 14.46875 -8.5625 "/></g></g></g><g fill="#4f46e5" fill-opacity="1"><g transform="translate(95.290286, 35.742401)"><g><path d="M 13.6875 -4.3125 L 6.125 -4.3125 L 4.6875 0 L 0.09375 0 L 7.890625 -20.9375 L 11.890625 -20.9375 L 19.734375 0 L 15.140625 0 Z M 7.296875 -7.8125 L 12.53125 -7.8125 L 9.890625 -15.640625 Z M 7.296875 -7.8125 "/></g></g></g><g fill="#4f46e5" fill-opacity="1"><g transform="translate(114.747899, 35.742401)"><g><path d="M 18.3125 -6.96875 C 18.144531 -4.71875 17.3125 -2.945312 15.8125 -1.65625 C 14.3125 -0.363281 12.332031 0.28125 9.875 0.28125 C 7.195312 0.28125 5.085938 -0.617188 3.546875 -2.421875 C 2.003906 -4.234375 1.234375 -6.710938 1.234375 -9.859375 L 1.234375 -11.140625 C 1.234375 -13.160156 1.585938 -14.9375 2.296875 -16.46875 C 3.003906 -18 4.015625 -19.175781 5.328125 -20 C 6.648438 -20.820312 8.1875 -21.234375 9.9375 -21.234375 C 12.351562 -21.234375 14.296875 -20.582031 15.765625 -19.28125 C 17.242188 -17.988281 18.101562 -16.171875 18.34375 -13.828125 L 14.015625 -13.828125 C 13.910156 -15.179688 13.535156 -16.160156 12.890625 -16.765625 C 12.242188 -17.378906 11.257812 -17.6875 9.9375 -17.6875 C 8.5 -17.6875 7.421875 -17.171875 6.703125 -16.140625 C 5.992188 -15.109375 5.628906 -13.507812 5.609375 -11.34375 L 5.609375 -9.765625 C 5.609375 -7.503906 5.953125 -5.847656 6.640625 -4.796875 C 7.328125 -3.753906 8.40625 -3.234375 9.875 -3.234375 C 11.207031 -3.234375 12.203125 -3.535156 12.859375 -4.140625 C 13.515625 -4.753906 13.894531 -5.695312 14 -6.96875 Z M 18.3125 -6.96875 "/></g></g></g><g fill="#4f46e5" fill-opacity="1"><g transform="translate(133.543935, 35.742401)"><g><path d="M 17.625 -17.4375 L 11.21875 -17.4375 L 11.21875 0 L 6.90625 0 L 6.90625 -17.4375 L 0.578125 -17.4375 L 0.578125 -20.9375 L 17.625 -20.9375 Z M 17.625 -17.4375 "/></g></g></g></svg>